<svg xmlns="http://www.w3.org/2000/svg" width="700" height="700" viewBox="0 0 700 700" fill="none"><g clip-path="url(#clip0_1_2)"><path d="M465.071 344.144H385.499C385.426 344.144 385.353 344.128 385.287 344.095C385.221 344.063 385.163 344.017 385.118 343.959C385.072 343.902 385.04 343.834 385.024 343.763C385.008 343.691 385.009 343.617 385.026 343.545C385.073 343.344 386.252 338.626 391.17 338.626C391.17 338.626 391.169 338.626 391.17 338.626C391.639 338.626 392.134 338.671 392.639 338.759C393.032 338.828 393.414 338.863 393.777 338.863C395.874 338.863 397.25 337.689 398.707 336.445C400.325 335.064 402.16 333.498 405.181 333.498C408.521 333.498 410.493 334.495 412.233 335.375C413.663 336.098 414.897 336.722 416.679 336.722C418.182 336.722 419.352 335.252 420.707 333.549C422.736 330.998 425.262 327.823 430.222 327.823C435.106 327.823 436.809 330.244 438.176 332.189C439.159 333.588 439.936 334.692 441.651 334.692C443.82 334.692 444.699 333.996 445.629 333.259C446.593 332.495 447.591 331.705 449.834 331.705C451.948 331.705 453.91 334.015 456.181 336.689C458.762 339.727 461.687 343.171 465.071 343.171C465.198 343.174 465.319 343.226 465.408 343.317C465.497 343.408 465.547 343.531 465.547 343.658C465.547 343.785 465.497 343.907 465.408 343.998C465.319 344.089 465.198 344.142 465.071 344.144ZM386.167 343.171H461.624C459.312 341.877 457.291 339.499 455.44 337.319C453.413 334.932 451.498 332.678 449.834 332.678C447.93 332.678 447.143 333.301 446.233 334.022C445.261 334.792 444.159 335.665 441.651 335.665C439.431 335.665 438.435 334.248 437.381 332.748C436.078 330.896 434.601 328.795 430.222 328.795C425.731 328.795 423.466 331.642 421.468 334.154C419.957 336.054 418.651 337.694 416.679 337.694C414.666 337.694 413.271 336.989 411.794 336.242C410.071 335.371 408.289 334.47 405.181 334.47C402.518 334.47 400.974 335.789 399.339 337.185C397.812 338.488 396.233 339.836 393.777 339.836C393.358 339.836 392.919 339.796 392.471 339.717C392.041 339.64 391.606 339.6 391.17 339.598C387.939 339.599 386.616 342.014 386.167 343.171ZM93.5713 267.717C93.5713 267.717 94.9762 260.633 101.358 261.956C107.742 263.279 108.754 255.106 115.293 255.106C121.833 255.106 123.389 259.311 127.981 259.311C132.573 259.311 133.975 247.712 142.929 247.712C151.879 247.712 150.479 256.662 155.538 256.662C160.599 256.662 159.899 252.77 164.568 252.77C169.239 252.77 174.193 267.718 181.384 267.718L93.5713 267.717ZM394.727 174.827C394.727 174.827 396.172 168.653 402.745 169.806C409.318 170.958 410.361 163.835 417.092 163.835C423.826 163.835 425.427 167.498 430.157 167.498C434.886 167.498 436.328 157.388 445.547 157.388C454.764 157.388 453.322 165.193 458.532 165.193C463.74 165.193 463.022 161.8 467.831 161.8C472.64 161.8 477.738 174.827 485.142 174.827H394.727V174.827ZM523.892 366.424C523.892 366.424 524.659 363.142 528.15 363.755C531.643 364.369 532.196 360.582 535.773 360.582C539.35 360.582 540.202 362.53 542.715 362.53C545.228 362.53 545.996 357.159 550.891 357.159C555.788 357.159 555.023 361.303 557.79 361.303C560.558 361.303 560.175 359.501 562.73 359.501C565.285 359.501 567.996 366.424 571.928 366.424H523.892ZM338.793 158.559C331.508 158.559 324.915 161.513 320.141 166.287C315.364 171.061 312.413 177.655 312.413 184.94C312.413 192.225 315.364 198.818 320.141 203.592C324.915 208.369 331.509 211.32 338.793 211.32C346.077 211.32 352.672 208.369 357.446 203.592C362.22 198.818 365.173 192.224 365.173 184.94C365.173 177.655 362.22 171.061 357.446 166.287C352.672 161.513 346.077 158.559 338.793 158.559ZM327.1 173.248C330.092 170.254 334.227 168.403 338.793 168.403C343.359 168.403 347.494 170.254 350.485 173.248C353.479 176.239 355.329 180.374 355.329 184.94C355.329 189.506 353.479 193.641 350.485 196.632C347.494 199.626 343.359 201.476 338.793 201.476C334.227 201.476 330.092 199.626 327.1 196.632C324.107 193.641 322.256 189.506 322.256 184.94C322.257 180.374 324.107 176.239 327.1 173.248Z" fill="#7DA3FB"></path><path d="M338.793 151.566H344.216L348.798 164.521H328.788L333.37 151.566H338.793ZM338.793 218.314H344.216L348.798 205.361H328.788L333.37 218.314H338.793Z" fill="#7DA3FB"></path><path d="M362.39 161.343L366.226 165.177L360.306 177.576L346.157 163.427L358.556 157.507L362.39 161.343ZM315.194 208.537L319.03 212.373L331.429 206.453L317.28 192.304L311.36 204.703L315.194 208.537ZM315.194 161.343L319.03 157.507L331.429 163.427L317.28 177.576L311.36 165.177L315.194 161.343ZM362.39 208.537L366.226 204.703L360.306 192.304L346.157 206.453L358.556 212.373L362.39 208.537Z" fill="#7DA3FB"></path><path d="M305.419 184.94V179.517L318.372 174.935V194.945L305.419 190.363V184.94ZM372.164 184.94V179.517L359.212 174.935V194.945L372.164 190.363V184.94Z" fill="#7DA3FB"></path><path d="M125.676 207.662C127.066 206.271 129.323 206.271 130.716 207.662C132.106 209.055 132.106 211.311 130.716 212.702C129.323 214.095 127.066 214.095 125.676 212.702C124.283 211.311 124.283 209.055 125.676 207.662ZM110.217 192.203C115.18 187.24 121.688 184.758 128.196 184.758C134.701 184.758 141.209 187.241 146.174 192.203L142.947 195.43C138.873 191.356 133.534 189.32 128.196 189.32C122.857 189.32 117.516 191.356 113.442 195.43L110.217 192.203ZM120.836 202.823C122.869 200.79 125.531 199.775 128.196 199.775C130.858 199.775 133.523 200.79 135.555 202.823L132.328 206.05C131.187 204.908 129.691 204.337 128.196 204.337C126.7 204.337 125.204 204.908 124.061 206.05L120.836 202.823ZM115.526 197.514C119.023 194.017 123.611 192.267 128.196 192.267C132.781 192.267 137.366 194.017 140.863 197.514L137.639 200.739C135.03 198.132 131.612 196.828 128.196 196.828C124.777 196.828 121.359 198.132 118.752 200.739L115.526 197.514Z" fill="#F72E70"></path><path d="M286.02 155.489C283.001 155.489 280.266 156.714 278.287 158.692C276.309 160.671 275.086 163.403 275.086 166.423C275.086 169.442 276.308 172.174 278.287 174.153C280.266 176.131 283.001 177.356 286.02 177.356C289.037 177.356 291.772 176.131 293.75 174.153C295.729 172.174 296.952 169.442 296.952 166.423C296.952 163.403 295.729 160.671 293.75 158.692C291.772 156.714 289.037 155.489 286.02 155.489ZM281.174 161.576C281.809 160.939 282.565 160.434 283.397 160.089C284.228 159.745 285.12 159.568 286.02 159.57C287.912 159.57 289.625 160.337 290.864 161.576C291.502 162.212 292.008 162.967 292.353 163.799C292.697 164.631 292.874 165.523 292.873 166.423C292.873 168.315 292.105 170.028 290.864 171.269C289.625 172.508 287.913 173.276 286.02 173.276C284.125 173.276 282.413 172.508 281.174 171.269C279.932 170.028 279.165 168.315 279.165 166.423C279.165 164.53 279.932 162.815 281.174 161.576Z" fill="#F2889E"></path><path d="M286.02 152.591H288.267L290.166 157.96H281.871L283.771 152.591H286.02ZM286.02 180.252H288.267L290.166 174.886H281.871L283.771 180.252H286.02Z" fill="#F2889E"></path><path d="M295.799 156.641L297.388 158.233L294.936 163.371L289.07 157.507L294.21 155.052L295.799 156.641ZM276.239 176.202L277.827 177.791L282.966 175.338L277.102 169.475L274.65 174.613L276.239 176.202ZM276.239 156.641L277.827 155.052L282.966 157.507L277.102 163.371L274.65 158.233L276.239 156.641ZM295.799 176.202L297.388 174.613L294.936 169.475L289.07 175.338L294.21 177.791L295.799 176.202Z" fill="#F2889E"></path><path d="M272.188 166.423V164.176L277.557 162.276V170.569L272.188 168.67V166.423ZM299.85 166.423V164.176L294.481 162.276V170.569L299.85 168.67V166.423Z" fill="#F2889E"></path><path d="M119.245 316.457C119.116 316.457 118.992 316.406 118.901 316.315C118.81 316.223 118.759 316.1 118.758 315.971V315.455C118.762 315.329 118.815 315.209 118.906 315.121C118.997 315.033 119.119 314.984 119.245 314.984C119.371 314.984 119.493 315.033 119.584 315.121C119.675 315.209 119.728 315.329 119.732 315.455V315.971C119.732 316.1 119.68 316.223 119.589 316.315C119.498 316.406 119.374 316.457 119.245 316.457ZM119.245 313.017C119.116 313.017 118.992 312.966 118.901 312.874C118.81 312.783 118.759 312.659 118.758 312.53V310.583C118.762 310.457 118.815 310.337 118.906 310.249C118.997 310.161 119.119 310.112 119.245 310.112C119.371 310.112 119.493 310.161 119.584 310.249C119.675 310.337 119.728 310.457 119.732 310.583V312.53C119.732 312.659 119.68 312.783 119.589 312.874C119.498 312.966 119.374 313.017 119.245 313.017ZM119.245 308.148C119.116 308.148 118.992 308.097 118.901 308.006C118.81 307.914 118.759 307.791 118.758 307.662V305.715C118.762 305.589 118.815 305.469 118.906 305.381C118.997 305.293 119.119 305.244 119.245 305.244C119.371 305.244 119.493 305.293 119.584 305.381C119.675 305.469 119.728 305.589 119.732 305.715V307.662C119.731 307.791 119.68 307.914 119.589 308.006C119.498 308.097 119.374 308.148 119.245 308.148ZM119.245 303.281C119.116 303.281 118.992 303.23 118.901 303.138C118.81 303.047 118.759 302.924 118.758 302.795V300.848C118.762 300.722 118.815 300.602 118.906 300.514C118.997 300.426 119.119 300.376 119.245 300.376C119.371 300.376 119.493 300.426 119.584 300.514C119.675 300.602 119.728 300.722 119.732 300.848V302.795C119.731 302.924 119.68 303.047 119.589 303.138C119.498 303.23 119.374 303.281 119.245 303.281ZM119.245 298.415C119.116 298.415 118.992 298.364 118.901 298.272C118.81 298.181 118.759 298.057 118.758 297.928V295.982C118.762 295.856 118.815 295.736 118.906 295.648C118.997 295.559 119.119 295.51 119.245 295.51C119.371 295.51 119.493 295.559 119.584 295.648C119.675 295.736 119.728 295.856 119.732 295.982V297.928C119.732 298.057 119.68 298.181 119.589 298.272C119.498 298.364 119.374 298.415 119.245 298.415ZM119.245 293.547C119.116 293.547 118.992 293.496 118.901 293.405C118.81 293.313 118.759 293.19 118.758 293.061V292.199C118.758 291.825 118.773 291.448 118.802 291.079C118.807 291.015 118.824 290.952 118.852 290.894C118.881 290.837 118.921 290.785 118.969 290.743C119.018 290.701 119.075 290.669 119.136 290.649C119.197 290.629 119.262 290.621 119.326 290.626C119.39 290.631 119.452 290.649 119.51 290.678C119.567 290.707 119.618 290.748 119.66 290.797C119.701 290.846 119.732 290.903 119.752 290.965C119.771 291.026 119.778 291.091 119.772 291.155C119.745 291.502 119.732 291.85 119.732 292.199V293.061C119.731 293.19 119.68 293.313 119.589 293.405C119.498 293.496 119.374 293.547 119.245 293.547ZM119.82 288.743C119.744 288.743 119.669 288.725 119.601 288.691C119.534 288.657 119.475 288.608 119.43 288.547C119.384 288.486 119.354 288.416 119.341 288.341C119.327 288.267 119.332 288.19 119.353 288.117C119.545 287.475 119.78 286.847 120.057 286.237C120.111 286.121 120.209 286.031 120.329 285.987C120.449 285.943 120.582 285.947 120.698 286C120.815 286.053 120.906 286.15 120.951 286.269C120.997 286.389 120.994 286.521 120.943 286.639C120.684 287.208 120.465 287.795 120.286 288.395C120.256 288.495 120.194 288.583 120.11 288.646C120.026 288.709 119.925 288.743 119.82 288.743ZM121.959 284.405C121.869 284.405 121.782 284.38 121.705 284.333C121.629 284.287 121.567 284.22 121.526 284.14C121.485 284.061 121.467 283.971 121.474 283.882C121.481 283.793 121.512 283.707 121.564 283.635C121.954 283.092 122.377 282.574 122.831 282.084C122.919 281.993 123.04 281.94 123.167 281.937C123.294 281.933 123.417 281.98 123.511 282.066C123.604 282.152 123.659 282.272 123.666 282.399C123.672 282.526 123.629 282.65 123.545 282.745C123.118 283.205 122.721 283.692 122.355 284.202C122.31 284.265 122.25 284.316 122.181 284.351C122.112 284.387 122.036 284.405 121.959 284.405ZM125.355 280.955C125.253 280.955 125.153 280.923 125.07 280.863C124.987 280.803 124.925 280.719 124.892 280.622C124.86 280.525 124.859 280.42 124.89 280.322C124.921 280.225 124.982 280.139 125.064 280.078C125.599 279.679 126.158 279.313 126.738 278.982C126.85 278.923 126.98 278.91 127.101 278.945C127.222 278.981 127.325 279.062 127.388 279.171C127.45 279.281 127.468 279.411 127.437 279.533C127.405 279.656 127.328 279.761 127.22 279.827C126.675 280.139 126.149 280.483 125.645 280.858C125.558 280.924 125.456 280.955 125.355 280.955ZM129.633 278.694C129.518 278.694 129.407 278.653 129.319 278.578C129.231 278.503 129.172 278.4 129.154 278.286C129.135 278.173 129.157 278.056 129.216 277.957C129.276 277.858 129.368 277.783 129.477 277.746C130.111 277.531 130.76 277.359 131.417 277.231C131.48 277.219 131.545 277.22 131.607 277.232C131.67 277.245 131.729 277.27 131.782 277.306C131.835 277.342 131.88 277.388 131.916 277.441C131.951 277.495 131.975 277.554 131.987 277.617C131.999 277.68 131.999 277.744 131.986 277.807C131.973 277.87 131.948 277.929 131.912 277.982C131.876 278.035 131.83 278.08 131.777 278.115C131.724 278.15 131.664 278.175 131.601 278.187C130.987 278.306 130.382 278.466 129.79 278.668C129.739 278.685 129.687 278.694 129.633 278.694ZM146.078 277.957H144.133C144.007 277.953 143.887 277.9 143.799 277.809C143.711 277.719 143.661 277.597 143.661 277.471C143.661 277.344 143.711 277.223 143.799 277.132C143.887 277.041 144.007 276.988 144.133 276.984H146.078C146.205 276.988 146.325 277.041 146.413 277.132C146.501 277.223 146.55 277.344 146.55 277.471C146.55 277.597 146.501 277.719 146.413 277.809C146.325 277.9 146.205 277.953 146.078 277.957ZM141.215 277.957H139.271C139.144 277.953 139.024 277.9 138.936 277.809C138.848 277.719 138.799 277.597 138.799 277.471C138.799 277.344 138.848 277.223 138.936 277.132C139.024 277.041 139.144 276.988 139.271 276.984H141.215C141.342 276.988 141.462 277.041 141.55 277.132C141.638 277.223 141.687 277.344 141.687 277.471C141.687 277.597 141.638 277.719 141.55 277.809C141.462 277.9 141.342 277.953 141.215 277.957ZM136.353 277.957H134.409C134.283 277.953 134.163 277.9 134.075 277.809C133.987 277.719 133.938 277.597 133.938 277.471C133.938 277.344 133.987 277.223 134.075 277.132C134.163 277.041 134.283 276.988 134.409 276.984H136.353C136.48 276.988 136.6 277.041 136.688 277.132C136.776 277.223 136.825 277.344 136.825 277.471C136.825 277.597 136.776 277.719 136.688 277.809C136.6 277.9 136.48 277.953 136.353 277.957ZM422.616 228.665H420.672C420.546 228.662 420.426 228.609 420.338 228.518C420.25 228.427 420.2 228.305 420.2 228.179C420.2 228.053 420.25 227.931 420.338 227.84C420.426 227.749 420.546 227.696 420.672 227.692H422.616C422.742 227.696 422.862 227.749 422.95 227.84C423.038 227.931 423.087 228.053 423.087 228.179C423.087 228.305 423.038 228.427 422.95 228.518C422.862 228.609 422.742 228.662 422.616 228.665ZM417.755 228.665H415.812C415.685 228.662 415.565 228.609 415.477 228.518C415.389 228.427 415.34 228.305 415.34 228.179C415.34 228.053 415.389 227.931 415.477 227.84C415.565 227.749 415.685 227.696 415.812 227.692H417.755C417.882 227.696 418.002 227.749 418.09 227.84C418.178 227.931 418.227 228.053 418.227 228.179C418.227 228.305 418.178 228.427 418.09 228.518C418.002 228.609 417.882 228.662 417.755 228.665ZM412.895 228.665H410.951C410.825 228.662 410.705 228.609 410.617 228.518C410.529 228.427 410.48 228.305 410.48 228.179C410.48 228.053 410.529 227.931 410.617 227.84C410.705 227.749 410.825 227.696 410.951 227.692H412.895C413.021 227.696 413.141 227.749 413.229 227.84C413.317 227.931 413.367 228.053 413.367 228.179C413.367 228.305 413.317 228.427 413.229 228.518C413.141 228.609 413.021 228.662 412.895 228.665ZM408.035 228.665H406.091C405.965 228.662 405.845 228.609 405.757 228.518C405.669 228.427 405.619 228.305 405.619 228.179C405.619 228.053 405.669 227.931 405.757 227.84C405.845 227.749 405.965 227.696 406.091 227.692H408.035C408.161 227.696 408.281 227.749 408.369 227.84C408.457 227.931 408.506 228.053 408.506 228.179C408.506 228.305 408.457 228.427 408.369 228.518C408.281 228.609 408.161 228.662 408.035 228.665ZM403.174 228.665H401.231C401.104 228.662 400.984 228.609 400.896 228.518C400.808 228.427 400.759 228.305 400.759 228.179C400.759 228.053 400.808 227.931 400.896 227.84C400.984 227.749 401.104 227.696 401.231 227.692H403.174C403.301 227.696 403.421 227.749 403.509 227.84C403.597 227.931 403.646 228.053 403.646 228.179C403.646 228.305 403.597 228.427 403.509 228.518C403.421 228.609 403.301 228.662 403.174 228.665ZM398.314 228.665H396.37C396.244 228.662 396.124 228.609 396.036 228.518C395.948 228.427 395.899 228.305 395.899 228.179C395.899 228.053 395.948 227.931 396.036 227.84C396.124 227.749 396.244 227.696 396.37 227.692H398.314C398.44 227.696 398.56 227.749 398.648 227.84C398.736 227.931 398.786 228.053 398.786 228.179C398.786 228.305 398.736 228.427 398.648 228.518C398.56 228.609 398.44 228.662 398.314 228.665ZM393.453 228.665H391.51C391.383 228.662 391.263 228.609 391.175 228.518C391.087 228.427 391.038 228.305 391.038 228.179C391.038 228.053 391.087 227.931 391.175 227.84C391.263 227.749 391.383 227.696 391.51 227.692H393.453C393.58 227.696 393.7 227.749 393.788 227.84C393.876 227.931 393.925 228.053 393.925 228.179C393.925 228.305 393.876 228.427 393.788 228.518C393.7 228.609 393.58 228.662 393.453 228.665ZM388.593 228.665H386.649C386.523 228.662 386.403 228.609 386.315 228.518C386.227 228.427 386.178 228.305 386.178 228.179C386.178 228.053 386.227 227.931 386.315 227.84C386.403 227.749 386.523 227.696 386.649 227.692H388.593C388.72 227.696 388.839 227.749 388.928 227.84C389.016 227.931 389.065 228.053 389.065 228.179C389.065 228.305 389.016 228.427 388.928 228.518C388.839 228.609 388.72 228.662 388.593 228.665ZM383.733 228.665H381.789C381.663 228.662 381.543 228.609 381.455 228.518C381.367 228.427 381.317 228.305 381.317 228.179C381.317 228.053 381.367 227.931 381.455 227.84C381.543 227.749 381.663 227.696 381.789 227.692H383.733C383.859 227.696 383.979 227.749 384.067 227.84C384.155 227.931 384.204 228.053 384.204 228.179C384.204 228.305 384.155 228.427 384.067 228.518C383.979 228.609 383.859 228.662 383.733 228.665ZM378.872 228.665H376.929C376.803 228.662 376.683 228.609 376.595 228.518C376.507 228.427 376.457 228.305 376.457 228.179C376.457 228.053 376.507 227.931 376.595 227.84C376.683 227.749 376.803 227.696 376.929 227.692H378.872C378.999 227.696 379.119 227.749 379.207 227.84C379.295 227.931 379.344 228.053 379.344 228.179C379.344 228.305 379.295 228.427 379.207 228.518C379.119 228.609 378.999 228.662 378.872 228.665ZM374.012 228.665H372.069C371.942 228.662 371.822 228.609 371.734 228.518C371.646 228.427 371.597 228.305 371.597 228.179C371.597 228.053 371.646 227.931 371.734 227.84C371.822 227.749 371.942 227.696 372.069 227.692H374.012C374.139 227.696 374.259 227.749 374.347 227.84C374.435 227.931 374.484 228.053 374.484 228.179C374.484 228.305 374.435 228.427 374.347 228.518C374.259 228.609 374.139 228.662 374.012 228.665ZM369.152 228.665H367.208C367.082 228.662 366.962 228.609 366.874 228.518C366.786 228.427 366.737 228.305 366.737 228.179C366.737 228.053 366.786 227.931 366.874 227.84C366.962 227.749 367.082 227.696 367.208 227.692H369.152C369.278 227.696 369.398 227.749 369.486 227.84C369.574 227.931 369.624 228.053 369.624 228.179C369.624 228.305 369.574 228.427 369.486 228.518C369.398 228.609 369.278 228.662 369.152 228.665ZM364.292 228.665H362.348C362.222 228.662 362.102 228.609 362.014 228.518C361.926 228.427 361.876 228.305 361.876 228.179C361.876 228.053 361.926 227.931 362.014 227.84C362.102 227.749 362.222 227.696 362.348 227.692H364.292C364.418 227.696 364.538 227.749 364.626 227.84C364.714 227.931 364.763 228.053 364.763 228.179C364.763 228.305 364.714 228.427 364.626 228.518C364.538 228.609 364.418 228.662 364.292 228.665ZM359.431 228.665H357.488C357.361 228.662 357.241 228.609 357.153 228.518C357.065 228.427 357.016 228.305 357.016 228.179C357.016 228.053 357.065 227.931 357.153 227.84C357.241 227.749 357.361 227.696 357.488 227.692H359.431C359.558 227.696 359.678 227.749 359.766 227.84C359.854 227.931 359.903 228.053 359.903 228.179C359.903 228.305 359.854 228.427 359.766 228.518C359.678 228.609 359.558 228.662 359.431 228.665ZM354.571 228.665H352.627C352.501 228.662 352.381 228.609 352.293 228.518C352.205 228.427 352.156 228.305 352.156 228.179C352.156 228.053 352.205 227.931 352.293 227.84C352.381 227.749 352.501 227.696 352.627 227.692H354.571C354.697 227.696 354.817 227.749 354.905 227.84C354.993 227.931 355.043 228.053 355.043 228.179C355.043 228.305 354.993 228.427 354.905 228.518C354.817 228.609 354.697 228.662 354.571 228.665ZM349.711 228.665H347.767C347.641 228.662 347.521 228.609 347.433 228.518C347.345 228.427 347.295 228.305 347.295 228.179C347.295 228.053 347.345 227.931 347.433 227.84C347.521 227.749 347.641 227.696 347.767 227.692H349.711C349.837 227.696 349.957 227.749 350.045 227.84C350.133 227.931 350.182 228.053 350.182 228.179C350.182 228.305 350.133 228.427 350.045 228.518C349.957 228.609 349.837 228.662 349.711 228.665ZM563.311 299.909C563.182 299.909 563.058 299.858 562.967 299.767C562.876 299.675 562.824 299.552 562.824 299.423V299.049C562.828 298.922 562.881 298.802 562.972 298.714C563.063 298.626 563.184 298.577 563.311 298.577C563.437 298.577 563.559 298.626 563.65 298.714C563.74 298.802 563.793 298.922 563.797 299.049V299.423C563.797 299.487 563.785 299.55 563.76 299.609C563.736 299.668 563.7 299.722 563.655 299.767C563.61 299.812 563.556 299.848 563.497 299.872C563.438 299.897 563.375 299.909 563.311 299.909ZM563.311 296.603C563.182 296.603 563.058 296.552 562.967 296.46C562.876 296.369 562.824 296.246 562.824 296.117V294.165C562.828 294.039 562.881 293.919 562.972 293.831C563.063 293.743 563.184 293.694 563.311 293.694C563.437 293.694 563.559 293.743 563.65 293.831C563.74 293.919 563.793 294.039 563.797 294.165V296.117C563.797 296.246 563.746 296.369 563.655 296.461C563.564 296.552 563.44 296.603 563.311 296.603ZM563.311 291.727C563.182 291.727 563.058 291.676 562.967 291.585C562.876 291.494 562.824 291.37 562.824 291.241V289.292C562.828 289.165 562.881 289.045 562.972 288.957C563.063 288.869 563.184 288.82 563.311 288.82C563.437 288.82 563.559 288.869 563.65 288.957C563.74 289.045 563.793 289.165 563.797 289.292V291.241C563.797 291.37 563.746 291.494 563.655 291.585C563.564 291.676 563.44 291.727 563.311 291.727ZM563.311 286.854C563.182 286.854 563.058 286.802 562.967 286.711C562.876 286.62 562.824 286.496 562.824 286.367V284.418C562.828 284.292 562.881 284.172 562.972 284.084C563.063 283.996 563.184 283.947 563.311 283.947C563.437 283.947 563.559 283.996 563.65 284.084C563.74 284.172 563.793 284.292 563.797 284.418V286.367C563.797 286.496 563.746 286.62 563.655 286.711C563.564 286.802 563.44 286.854 563.311 286.854ZM563.311 281.981C563.182 281.981 563.058 281.93 562.967 281.838C562.876 281.747 562.824 281.624 562.824 281.494V279.543C562.828 279.417 562.881 279.297 562.972 279.209C563.063 279.121 563.184 279.072 563.311 279.072C563.437 279.072 563.559 279.121 563.65 279.209C563.74 279.297 563.793 279.417 563.797 279.543V281.494C563.797 281.558 563.785 281.622 563.76 281.681C563.736 281.74 563.7 281.793 563.655 281.838C563.61 281.884 563.556 281.92 563.497 281.944C563.438 281.968 563.375 281.981 563.311 281.981ZM563.311 277.106C563.182 277.106 563.058 277.054 562.967 276.963C562.876 276.872 562.824 276.748 562.824 276.619V274.67C562.828 274.544 562.881 274.424 562.972 274.336C563.063 274.248 563.184 274.199 563.311 274.199C563.437 274.199 563.559 274.248 563.65 274.336C563.74 274.424 563.793 274.544 563.797 274.67V276.619C563.797 276.683 563.785 276.746 563.76 276.805C563.736 276.864 563.7 276.918 563.655 276.963C563.61 277.008 563.556 277.044 563.497 277.069C563.438 277.093 563.375 277.106 563.311 277.106ZM563.311 272.233C563.182 272.233 563.058 272.181 562.967 272.09C562.876 271.999 562.824 271.875 562.824 271.746V269.797C562.828 269.671 562.881 269.551 562.972 269.463C563.063 269.375 563.184 269.325 563.311 269.325C563.437 269.325 563.559 269.375 563.65 269.463C563.74 269.551 563.793 269.671 563.797 269.797V271.746C563.797 271.875 563.746 271.999 563.655 272.09C563.564 272.182 563.44 272.233 563.311 272.233ZM563.311 267.359C563.182 267.359 563.058 267.307 562.967 267.216C562.876 267.125 562.824 267.001 562.824 266.872V264.921C562.828 264.795 562.881 264.675 562.972 264.587C563.063 264.499 563.184 264.45 563.311 264.45C563.437 264.45 563.559 264.499 563.65 264.587C563.74 264.675 563.793 264.795 563.797 264.921V266.872C563.797 266.936 563.785 266.999 563.76 267.058C563.736 267.117 563.7 267.171 563.655 267.216C563.61 267.261 563.556 267.297 563.497 267.322C563.438 267.346 563.375 267.359 563.311 267.359ZM563.311 262.476C563.182 262.476 563.058 262.424 562.967 262.333C562.876 262.242 562.824 262.118 562.824 261.989V261.798C562.824 261.22 562.768 260.67 562.657 260.162C562.632 260.036 562.656 259.906 562.726 259.799C562.796 259.691 562.905 259.616 563.03 259.589C563.155 259.561 563.286 259.585 563.394 259.653C563.502 259.721 563.579 259.83 563.608 259.954C563.733 260.53 563.797 261.151 563.797 261.798V261.989C563.797 262.053 563.785 262.116 563.76 262.175C563.736 262.234 563.7 262.288 563.655 262.333C563.61 262.378 563.556 262.414 563.497 262.439C563.438 262.463 563.375 262.476 563.311 262.476ZM561.878 257.948C561.807 257.948 561.738 257.933 561.674 257.903C561.61 257.874 561.554 257.831 561.508 257.778C561.131 257.338 560.671 256.962 560.141 256.66C560.029 256.596 559.947 256.49 559.913 256.366C559.879 256.241 559.896 256.108 559.96 255.996C560.024 255.884 560.129 255.802 560.254 255.768C560.378 255.734 560.511 255.75 560.623 255.814C561.25 256.172 561.797 256.619 562.247 257.144C562.308 257.215 562.347 257.302 562.359 257.394C562.372 257.486 562.358 257.58 562.32 257.664C562.281 257.749 562.218 257.82 562.14 257.871C562.062 257.921 561.971 257.948 561.878 257.948ZM557.627 255.829C557.604 255.829 557.581 255.827 557.558 255.824C557.048 255.753 556.534 255.719 556.019 255.72H555.688C555.561 255.717 555.441 255.664 555.353 255.573C555.265 255.482 555.216 255.36 555.216 255.234C555.216 255.108 555.265 254.986 555.353 254.895C555.441 254.804 555.561 254.751 555.688 254.747H556.019C556.602 254.747 557.165 254.786 557.694 254.86C557.757 254.869 557.818 254.89 557.873 254.923C557.928 254.955 557.977 254.998 558.015 255.049C558.053 255.1 558.081 255.159 558.097 255.22C558.113 255.282 558.117 255.347 558.108 255.41C558.091 255.526 558.034 255.632 557.945 255.709C557.857 255.786 557.744 255.828 557.627 255.829ZM552.769 255.72H550.824C550.697 255.717 550.577 255.664 550.489 255.573C550.401 255.482 550.352 255.36 550.352 255.234C550.352 255.108 550.401 254.986 550.489 254.895C550.577 254.804 550.697 254.751 550.824 254.747H552.769C552.895 254.751 553.015 254.804 553.103 254.895C553.191 254.986 553.241 255.108 553.241 255.234C553.241 255.36 553.191 255.482 553.103 255.573C553.015 255.664 552.895 255.717 552.769 255.72ZM547.904 255.72H545.956C545.829 255.717 545.709 255.664 545.621 255.573C545.533 255.482 545.484 255.36 545.484 255.234C545.484 255.108 545.533 254.986 545.621 254.895C545.709 254.804 545.829 254.751 545.956 254.747H547.904C548.03 254.751 548.15 254.804 548.238 254.895C548.326 254.986 548.376 255.108 548.376 255.234C548.376 255.36 548.326 255.482 548.238 255.573C548.15 255.664 548.03 255.717 547.904 255.72Z" fill="#949899"></path><path d="M439.717 178.456H531.921C536.075 178.456 539.443 188.267 539.443 200.37V359.219C539.443 371.322 536.075 381.134 531.921 381.134H439.717C435.562 381.134 432.194 371.322 432.194 359.219V200.37C432.194 188.267 435.562 178.456 439.717 178.456Z" fill="#E1ECF2"></path><path d="M500.777 184.33H470.859C470.733 184.326 470.613 184.273 470.525 184.182C470.437 184.091 470.388 183.97 470.388 183.843C470.388 183.717 470.437 183.595 470.525 183.505C470.613 183.414 470.733 183.361 470.859 183.357H500.777C500.904 183.361 501.024 183.414 501.112 183.505C501.2 183.595 501.249 183.717 501.249 183.843C501.249 183.97 501.2 184.091 501.112 184.182C501.024 184.273 500.904 184.326 500.777 184.33Z" fill="#353640"></path><path d="M445.151 209.382H526.486V290.717H445.151V209.382Z" fill="white"></path><path d="M521.722 265.874V285.952H449.916V264.792C457.406 265.897 459.685 273.453 465.563 273.453C471.905 273.453 473.84 249.179 486.201 249.179C498.566 249.179 496.631 267.914 503.617 267.914C510.606 267.914 509.638 259.768 516.087 259.768C517.914 259.768 519.771 262.278 521.722 265.874Z" fill="#E1ECF2"></path><path d="M470.983 243.271C475.232 243.271 478.676 239.827 478.676 235.578C478.676 231.329 475.232 227.885 470.983 227.885C466.735 227.885 463.29 231.329 463.29 235.578C463.29 239.827 466.735 243.271 470.983 243.271Z" fill="#E1ECF2"></path><path d="M439.791 193.674H453.031V195.319H439.791V193.674ZM466.065 193.674H479.304V195.319H466.065V193.674ZM492.336 193.674H505.575V195.319H492.336V193.674ZM518.607 193.674H531.846V195.319H518.607V193.674ZM445.151 300.26H526.486V303.168H445.151V300.26ZM445.151 308.728H526.486V311.635H445.151V308.728ZM445.151 317.198H526.486V320.105H445.151V317.198ZM445.151 325.668H526.486V328.575H445.151V325.668ZM445.151 334.136H526.486V337.043H445.151V334.136ZM445.151 342.606H498.643V345.513H445.151V342.606ZM445.151 351.076H485.819V353.983H445.151V351.076Z" fill="white"></path><path d="M167.183 185.806H325.845C332.996 185.806 338.793 191.995 338.793 199.631V299.85C338.793 307.485 332.996 313.675 325.845 313.675H167.183C160.033 313.675 154.236 307.485 154.236 299.85V199.631C154.236 191.995 160.033 185.806 167.183 185.806Z" fill="#E1ECF2"></path><path d="M332.12 203.304H160.909C160.783 203.301 160.663 203.248 160.575 203.157C160.487 203.066 160.437 202.944 160.437 202.818C160.437 202.692 160.487 202.57 160.575 202.479C160.663 202.388 160.783 202.335 160.909 202.331H332.12C332.246 202.335 332.366 202.388 332.454 202.479C332.542 202.57 332.591 202.692 332.591 202.818C332.591 202.944 332.542 203.066 332.454 203.157C332.366 203.248 332.246 203.301 332.12 203.304ZM295.01 198.978C293.522 198.978 292.312 197.768 292.312 196.28C292.312 194.792 293.522 193.582 295.01 193.582C296.498 193.582 297.709 194.792 297.709 196.28C297.709 197.768 296.498 198.978 295.01 198.978ZM295.01 194.554C294.059 194.554 293.285 195.329 293.285 196.28C293.285 197.232 294.059 198.006 295.01 198.006C295.962 198.006 296.736 197.232 296.736 196.28C296.736 195.329 295.962 194.554 295.01 194.554ZM306.07 198.978C304.582 198.978 303.372 197.768 303.372 196.28C303.372 194.792 304.582 193.582 306.07 193.582C307.558 193.582 308.769 194.792 308.769 196.28C308.769 197.768 307.558 198.978 306.07 198.978ZM306.07 194.554C305.119 194.554 304.345 195.329 304.345 196.28C304.345 197.232 305.119 198.006 306.07 198.006C307.022 198.006 307.796 197.232 307.796 196.28C307.796 195.329 307.022 194.554 306.07 194.554ZM317.13 198.978C315.643 198.978 314.432 197.768 314.432 196.28C314.432 194.792 315.643 193.582 317.13 193.582C318.618 193.582 319.829 194.792 319.829 196.28C319.829 197.768 318.618 198.978 317.13 198.978ZM317.13 194.554C316.179 194.554 315.405 195.329 315.405 196.28C315.405 197.232 316.179 198.006 317.13 198.006C318.082 198.006 318.856 197.232 318.856 196.28C318.856 195.329 318.082 194.554 317.13 194.554Z" fill="#353640"></path><path d="M167.309 224.072H232.062V288.825H167.309V224.072Z" fill="white"></path><path d="M228.27 269.047V285.033H171.103V268.187C177.068 269.066 178.88 275.082 183.559 275.082C188.608 275.082 190.15 255.757 199.993 255.757C209.835 255.757 208.294 270.674 213.857 270.674C219.42 270.674 218.65 264.187 223.783 264.187C225.239 264.187 226.716 266.184 228.27 269.047Z" fill="#6BD181"></path><path d="M187.875 251.055C191.258 251.055 194 248.313 194 244.93C194 241.547 191.258 238.805 187.875 238.805C184.493 238.805 181.75 241.547 181.75 244.93C181.75 248.313 184.493 251.055 187.875 251.055Z" fill="#FFAF18"></path><path d="M167.309 211.995H190.092V214.828H167.309V211.995ZM212.518 211.995H235.3V214.828H212.518V211.995ZM257.726 211.995H280.509V214.828H257.726V211.995ZM302.937 211.995H325.719V214.828H302.937V211.995Z" fill="#FFAF18"></path><path d="M242.853 230.281H322.089V233.114H242.853V230.281ZM242.853 238.532H322.089V241.365H242.853V238.532ZM242.853 246.783H322.089V249.616H242.853V246.783ZM242.853 255.033H322.089V257.866H242.853V255.033ZM242.853 263.284H322.089V266.117H242.853V263.284ZM242.853 271.535H294.964V274.368H242.853V271.535ZM242.853 279.785H282.471V282.618H242.853V279.785Z" fill="white"></path><path d="M97.3793 424.116H234.999C241.229 424.116 246.328 419.018 246.328 412.785V339.367H86.0487V412.785C86.0487 419.018 91.147 424.116 97.3793 424.116Z" fill="#353640"></path><path d="M97.6358 350.782H130.69V353.615H97.6358V350.782Z" fill="#949899"></path><path d="M137.879 350.782H170.933V353.615H137.879V350.782Z" fill="#7DA3FB"></path><path d="M176.262 350.782H196.229V353.615H176.262V350.782ZM97.6358 376.103H130.69V378.936H97.6358V376.103ZM97.6358 409.869H130.69V412.701H97.6358V409.869Z" fill="#949899"></path><path d="M137.879 359.222H148.944V362.054H137.879V359.222Z" fill="#7DA3FB"></path><path d="M137.879 367.663H170.933V370.496H137.879V367.663ZM137.879 376.103H154.406V378.936H137.879V376.103Z" fill="#FFAF18"></path><path d="M137.879 384.545H170.933V387.378H137.879V384.545Z" fill="#7DA3FB"></path><path d="M137.879 392.987H187.604V395.82H137.879V392.987Z" fill="#FFAF18"></path><path d="M137.879 401.427H159.15V404.259H137.879V401.427Z" fill="#949899"></path><path d="M137.879 409.869H170.933V412.701H137.879V409.869ZM154.406 359.222H196.226V362.054H154.406V359.222Z" fill="#FFAF18"></path><path d="M176.262 367.663H193.641V370.496H176.262V367.663Z" fill="#7DA3FB"></path><path d="M160.454 376.103H180.42V378.936H160.454V376.103Z" fill="#949899"></path><path d="M176.262 384.545H196.229V387.378H176.262V384.545Z" fill="#FFAF18"></path><path d="M195.519 392.987H215.485V395.82H195.519V392.987ZM163.902 401.427H213.472V404.259H163.902V401.427ZM176.262 409.869H196.229V412.701H176.262V409.869Z" fill="#7DA3FB"></path><path d="M186.023 376.103H234.74V378.936H186.023V376.103Z" fill="#FFAF18"></path><path d="M202.34 409.869H230.144V412.701H202.34V409.869Z" fill="#949899"></path><path d="M218.512 401.427H230.718V404.259H218.512V401.427Z" fill="#FFAF18"></path><path d="M204.141 384.545H226.98V387.378H204.141V384.545ZM197.675 367.663H226.84V370.496H197.675V367.663Z" fill="#949899"></path><path d="M203.842 359.222H229.856V362.054H203.842V359.222Z" fill="#7DA3FB"></path><path d="M203.49 350.782H232.874V353.615H203.49V350.782Z" fill="#FFAF18"></path><path d="M93.4687 321.58H238.908C242.989 321.58 246.328 324.919 246.328 329V336.42H86.0487V329C86.0487 324.919 89.3877 321.58 93.4687 321.58Z" fill="#7DA3FB"></path><path d="M209.424 462.266C221.944 462.266 232.094 452.116 232.094 439.595C232.094 427.075 221.944 416.925 209.424 416.925C196.903 416.925 186.753 427.075 186.753 439.595C186.753 452.116 196.903 462.266 209.424 462.266Z" fill="#F72E70"></path><path d="M198.882 444.803L194.694 440.244L198.882 435.685H203.318L199.108 440.244L203.318 444.803H198.882ZM214.025 427.866L208.495 451.323H205.093L210.621 427.866H214.025ZM215.53 435.685H219.966L224.154 440.244L219.966 444.803H215.53L219.739 440.244L215.53 435.685Z" fill="white"></path><path d="M209.424 460.69C209.297 460.686 209.177 460.633 209.089 460.542C209.001 460.451 208.952 460.33 208.952 460.203C208.952 460.077 209.001 459.955 209.089 459.865C209.177 459.774 209.297 459.721 209.424 459.717C211.699 459.717 213.932 459.34 216.06 458.598C216.121 458.576 216.185 458.566 216.25 458.569C216.314 458.572 216.377 458.588 216.436 458.616C216.494 458.643 216.546 458.682 216.589 458.73C216.632 458.778 216.665 458.834 216.687 458.895C216.708 458.956 216.717 459.02 216.713 459.085C216.709 459.149 216.692 459.212 216.664 459.27C216.635 459.328 216.596 459.379 216.547 459.422C216.498 459.464 216.442 459.497 216.381 459.517C214.149 460.295 211.809 460.69 209.424 460.69ZM200.778 458.795C200.71 458.795 200.641 458.781 200.574 458.75C193.134 455.308 188.327 447.789 188.327 439.596C188.327 431.798 192.601 424.667 199.48 420.983C199.537 420.953 199.598 420.934 199.662 420.928C199.726 420.921 199.79 420.927 199.851 420.946C199.912 420.964 199.969 420.995 200.018 421.035C200.068 421.076 200.109 421.126 200.139 421.182C200.169 421.238 200.188 421.3 200.194 421.364C200.201 421.427 200.194 421.491 200.176 421.553C200.157 421.614 200.127 421.671 200.086 421.72C200.046 421.769 199.996 421.81 199.94 421.841C193.377 425.355 189.3 432.158 189.3 439.596C189.3 447.412 193.886 454.583 200.983 457.867C201.083 457.914 201.164 457.994 201.213 458.093C201.262 458.192 201.276 458.305 201.252 458.413C201.229 458.521 201.169 458.618 201.083 458.687C200.996 458.757 200.889 458.795 200.778 458.795ZM226.725 451.286C226.637 451.286 226.551 451.263 226.476 451.218C226.401 451.173 226.339 451.109 226.298 451.032C226.256 450.955 226.236 450.868 226.239 450.781C226.243 450.693 226.27 450.609 226.317 450.535C228.431 447.279 229.548 443.496 229.548 439.595C229.548 428.499 220.52 419.471 209.424 419.471C209.297 419.468 209.178 419.415 209.09 419.324C209.001 419.233 208.952 419.111 208.952 418.985C208.952 418.859 209.001 418.737 209.09 418.646C209.178 418.555 209.297 418.502 209.424 418.498C221.057 418.498 230.521 427.962 230.521 439.595C230.521 443.684 229.349 447.651 227.133 451.065C227.04 451.208 226.884 451.286 226.725 451.286Z" fill="white"></path><path d="M199.883 164.404H226.238V190.759H199.883V164.404Z" fill="#FFAF18"></path><path d="M226.238 189.582H201.339C201.212 189.578 201.092 189.525 201.004 189.434C200.916 189.344 200.867 189.222 200.867 189.096C200.867 188.969 200.916 188.848 201.004 188.757C201.092 188.666 201.212 188.613 201.339 188.609H225.751V164.404C225.755 164.278 225.808 164.158 225.899 164.07C225.99 163.982 226.111 163.933 226.238 163.933C226.364 163.933 226.486 163.982 226.576 164.07C226.667 164.158 226.72 164.278 226.724 164.404V189.096C226.724 189.225 226.673 189.348 226.582 189.44C226.49 189.531 226.367 189.582 226.238 189.582Z" fill="#2A1D19"></path><path d="M207.431 173.621L212.189 178.378L220.145 170.422L222.493 172.772L214.538 180.728L212.189 183.076L209.841 180.728L205.084 175.971L207.431 173.621Z" fill="white"></path><path d="M525.289 308.023H581.541V343.838H525.289V308.023Z" fill="#D0D3D4"></path><path d="M529.881 312.618H576.947V339.243H529.881V312.618Z" fill="#F72E70"></path><path d="M546.506 317.249L561.542 325.929L546.506 334.612V317.249Z" fill="white"></path><path d="M576.947 344.324H525.289C525.16 344.324 525.037 344.273 524.945 344.182C524.854 344.09 524.803 343.967 524.803 343.838V308.023C524.807 307.897 524.86 307.777 524.951 307.689C525.041 307.601 525.163 307.552 525.289 307.552C525.416 307.552 525.537 307.601 525.628 307.689C525.719 307.777 525.772 307.897 525.776 308.023V343.351H576.947C577.073 343.355 577.193 343.408 577.281 343.499C577.369 343.59 577.419 343.711 577.419 343.838C577.419 343.964 577.369 344.086 577.281 344.176C577.193 344.267 577.073 344.32 576.947 344.324Z" fill="#2A1D19"></path><path d="M415.851 278.238H439.574C444.003 278.238 447.627 274.615 447.627 270.186C447.627 265.755 444.003 262.131 439.574 262.131C438.228 262.129 436.904 262.469 435.724 263.118C434.005 259.665 430.435 257.278 426.333 257.278C421.041 257.278 416.633 261.251 415.947 266.364C415.723 266.338 415.494 266.324 415.263 266.324C411.987 266.324 409.306 269.005 409.306 272.281C409.306 275.559 411.987 278.238 415.263 278.238H415.851V278.238Z" fill="#F72E70"></path><path d="M439.574 278.725H415.263C411.71 278.725 408.82 275.834 408.82 272.281C408.82 268.728 411.71 265.838 415.263 265.838C415.353 265.838 415.444 265.84 415.536 265.844C416.456 260.652 421.019 256.792 426.333 256.792C426.459 256.795 426.579 256.848 426.667 256.939C426.755 257.03 426.804 257.152 426.804 257.278C426.804 257.404 426.755 257.526 426.667 257.617C426.579 257.708 426.459 257.761 426.333 257.764C421.35 257.764 417.092 261.489 416.429 266.429C416.412 266.555 416.346 266.669 416.245 266.747C416.145 266.825 416.018 266.861 415.892 266.847C415.683 266.823 415.473 266.811 415.263 266.811C412.247 266.811 409.793 269.265 409.793 272.281C409.793 275.297 412.247 277.752 415.263 277.752H439.574C439.701 277.754 439.822 277.807 439.911 277.898C440 277.989 440.05 278.111 440.05 278.238C440.05 278.365 440.001 278.488 439.912 278.579C439.823 278.669 439.702 278.722 439.574 278.725ZM435.725 263.605C435.617 263.605 435.512 263.569 435.427 263.503C435.341 263.437 435.28 263.344 435.253 263.239C435.226 263.135 435.235 263.024 435.278 262.925C435.321 262.826 435.395 262.744 435.49 262.692C436.742 262.005 438.147 261.645 439.574 261.645C439.701 261.649 439.821 261.702 439.909 261.793C439.997 261.883 440.046 262.005 440.046 262.131C440.046 262.258 439.997 262.379 439.909 262.47C439.821 262.561 439.701 262.614 439.574 262.618C438.31 262.618 437.067 262.937 435.959 263.545C435.884 263.585 435.804 263.605 435.725 263.605Z" fill="#353640"></path><path d="M535.103 207.132H559.599C560.686 207.132 561.575 208.022 561.575 209.109V223.333C561.575 224.42 560.686 225.309 559.599 225.309H535.103C534.016 225.309 533.127 224.42 533.127 223.333V209.109C533.127 208.022 534.016 207.132 535.103 207.132Z" fill="#7DA3FB"></path><path d="M547.351 216.707C547.277 216.707 547.202 216.69 547.133 216.656L532.909 209.544C532.851 209.516 532.799 209.477 532.756 209.428C532.713 209.38 532.68 209.324 532.659 209.263C532.638 209.202 532.63 209.137 532.634 209.073C532.638 209.008 532.655 208.945 532.684 208.887C532.713 208.83 532.753 208.778 532.802 208.736C532.851 208.694 532.908 208.662 532.97 208.642C533.031 208.622 533.096 208.615 533.16 208.62C533.225 208.626 533.287 208.644 533.344 208.674L547.351 215.677L561.357 208.674C561.414 208.645 561.476 208.628 561.54 208.624C561.604 208.619 561.668 208.627 561.728 208.647C561.789 208.667 561.845 208.699 561.893 208.741C561.942 208.783 561.981 208.834 562.01 208.891C562.038 208.948 562.055 209.011 562.06 209.074C562.064 209.138 562.056 209.202 562.036 209.263C562.016 209.323 561.984 209.379 561.942 209.427C561.9 209.476 561.849 209.515 561.792 209.544L547.568 216.656C547.5 216.69 547.425 216.707 547.351 216.707Z" fill="#353640"></path><path d="M533.127 223.819C533.025 223.819 532.926 223.787 532.843 223.727C532.76 223.668 532.698 223.583 532.666 223.486C532.633 223.39 532.632 223.285 532.663 223.187C532.693 223.09 532.754 223.004 532.836 222.943L544.234 214.42C544.337 214.343 544.467 214.309 544.595 214.328C544.722 214.346 544.838 214.415 544.915 214.518C544.992 214.621 545.025 214.751 545.007 214.879C544.988 215.006 544.92 215.122 544.817 215.199L533.418 223.722C533.334 223.785 533.232 223.819 533.127 223.819ZM561.575 223.819C561.473 223.819 561.371 223.788 561.284 223.722L549.885 215.199C549.782 215.122 549.714 215.006 549.695 214.879C549.677 214.751 549.71 214.621 549.787 214.518C549.864 214.415 549.98 214.346 550.107 214.328C550.235 214.309 550.365 214.343 550.468 214.42L561.866 222.943C561.948 223.004 562.009 223.09 562.039 223.187C562.07 223.285 562.069 223.39 562.036 223.486C562.004 223.583 561.942 223.668 561.859 223.727C561.776 223.787 561.677 223.819 561.575 223.819Z" fill="#353640"></path><path d="M112.805 441.681H136.43V548.431H112.805V441.681Z" fill="#F2889E"></path><path d="M116.013 543.378C115.884 543.378 115.761 543.327 115.669 543.236C115.578 543.145 115.527 543.021 115.527 542.892V447.223C115.531 447.097 115.584 446.977 115.675 446.889C115.765 446.801 115.887 446.751 116.013 446.751C116.14 446.751 116.261 446.801 116.352 446.889C116.443 446.977 116.496 447.097 116.5 447.223V542.892C116.5 543.021 116.449 543.145 116.357 543.236C116.266 543.327 116.142 543.378 116.013 543.378Z" fill="white"></path><path d="M136.43 458.068H151.517V548.431H136.43V458.068Z" fill="#FFAF18"></path><path d="M139.851 543.987C139.722 543.987 139.598 543.936 139.507 543.845C139.416 543.754 139.364 543.63 139.364 543.501V463.001C139.368 462.875 139.421 462.755 139.512 462.667C139.603 462.579 139.724 462.529 139.851 462.529C139.977 462.529 140.099 462.579 140.189 462.667C140.28 462.755 140.333 462.875 140.337 463.001V543.501C140.337 543.63 140.286 543.754 140.195 543.845C140.103 543.936 139.98 543.987 139.851 543.987Z" fill="white"></path><path d="M151.517 451.652H172.517V548.433H151.517V451.652Z" fill="#5630AD"></path><path d="M156.277 543.638C156.148 543.637 156.025 543.586 155.933 543.495C155.842 543.404 155.791 543.28 155.791 543.151V456.934C155.795 456.808 155.848 456.688 155.939 456.6C156.029 456.512 156.151 456.463 156.277 456.463C156.404 456.463 156.525 456.512 156.616 456.6C156.707 456.688 156.76 456.808 156.764 456.934V543.151C156.764 543.28 156.712 543.404 156.621 543.495C156.53 543.586 156.406 543.637 156.277 543.638Z" fill="white"></path><path d="M136.43 548.92H112.805C112.679 548.916 112.559 548.863 112.471 548.772C112.383 548.682 112.333 548.56 112.333 548.434C112.333 548.307 112.383 548.186 112.471 548.095C112.559 548.004 112.679 547.951 112.805 547.947H135.944V446.11C135.947 445.984 136 445.864 136.091 445.776C136.182 445.688 136.304 445.638 136.43 445.638C136.556 445.638 136.678 445.688 136.769 445.776C136.86 445.864 136.913 445.984 136.916 446.11V548.433C136.917 548.497 136.904 548.561 136.88 548.62C136.855 548.679 136.819 548.732 136.774 548.778C136.729 548.823 136.675 548.859 136.616 548.883C136.557 548.908 136.494 548.92 136.43 548.92ZM163.476 548.92H151.517C151.388 548.92 151.265 548.869 151.173 548.778C151.082 548.686 151.031 548.563 151.031 548.434V458.068C151.035 457.942 151.088 457.822 151.179 457.734C151.269 457.646 151.391 457.597 151.517 457.597C151.644 457.597 151.765 457.646 151.856 457.734C151.947 457.822 152 457.942 152.004 458.068V547.947H163.476C163.603 547.95 163.724 548.002 163.813 548.093C163.902 548.184 163.952 548.306 163.952 548.434C163.952 548.561 163.902 548.683 163.813 548.774C163.724 548.865 163.603 548.917 163.476 548.92Z" fill="#2A1D19"></path><path d="M267.162 384.039C267.162 384.039 258.962 393.759 251.671 419.463C244.379 445.17 240.004 477.36 236.117 494.104C234.413 501.438 231.59 511.985 231.224 521.521C236.296 556.302 273.205 539.625 277.559 497.522C277.559 497.522 284.123 464.625 288.498 436.559C292.873 408.497 283.88 370.055 267.162 384.039ZM428.538 382.979C428.538 382.979 442.232 395.36 449.524 412.618C456.815 429.875 461.921 468.762 467.024 497.686C469.516 511.81 469.863 523.962 466.821 532.702C457.417 554.155 411.847 542.087 419.951 500.46C419.951 500.46 418.656 458.432 415.254 422.459C411.85 386.486 418.157 374.159 428.538 382.979Z" fill="#7DA3FB"></path><path d="M329.058 360.589C329.058 360.589 276.398 373.191 267.162 384.13C257.924 395.066 270.806 457.529 282.473 547.946H413.725C413.725 547.946 434.87 395.064 429.525 384.37C424.177 373.676 361.426 358.122 361.426 358.122L329.058 360.589Z" fill="#7DA3FB"></path><path d="M357.215 428.483H357.207L340.802 428.238C340.673 428.237 340.549 428.185 340.459 428.093C340.368 428.001 340.318 427.877 340.319 427.748C340.319 427.619 340.372 427.495 340.464 427.405C340.555 427.314 340.68 427.264 340.809 427.265H340.816L356.692 427.502L353.934 388.289C353.925 388.16 353.967 388.033 354.052 387.936C354.136 387.838 354.256 387.779 354.385 387.769C354.654 387.754 354.886 387.953 354.905 388.221L357.7 427.962C357.705 428.029 357.696 428.096 357.673 428.159C357.651 428.221 357.616 428.279 357.571 428.328C357.525 428.377 357.47 428.416 357.409 428.443C357.348 428.469 357.281 428.483 357.215 428.483Z" fill="#353640"></path><path d="M347.492 402.11C349.874 402.11 351.806 400.179 351.806 397.796C351.806 395.413 349.874 393.482 347.492 393.482C345.109 393.482 343.177 395.413 343.177 397.796C343.177 400.179 345.109 402.11 347.492 402.11Z" fill="white"></path><path d="M347.492 420.702C349.874 420.702 351.806 418.771 351.806 416.388C351.806 414.005 349.874 412.074 347.492 412.074C345.109 412.074 343.177 414.005 343.177 416.388C343.177 418.771 345.109 420.702 347.492 420.702Z" fill="white"></path><path d="M275.361 496.653C275.244 496.653 275.131 496.611 275.042 496.534C274.954 496.457 274.896 496.351 274.88 496.235L267.261 442.282C267.243 442.154 267.277 442.024 267.354 441.921C267.432 441.818 267.547 441.75 267.675 441.732C267.803 441.714 267.932 441.747 268.036 441.825C268.139 441.902 268.207 442.018 268.225 442.145L275.843 496.099C275.853 496.168 275.848 496.238 275.828 496.305C275.808 496.372 275.774 496.434 275.729 496.486C275.683 496.539 275.626 496.581 275.563 496.61C275.499 496.639 275.431 496.654 275.361 496.653ZM420.285 498.291C420.217 498.292 420.149 498.277 420.086 498.249C420.024 498.221 419.967 498.18 419.922 498.129C419.876 498.078 419.842 498.018 419.821 497.952C419.8 497.887 419.794 497.818 419.801 497.75L427.098 433.779C427.105 433.715 427.125 433.654 427.156 433.598C427.186 433.542 427.228 433.493 427.278 433.453C427.328 433.413 427.386 433.384 427.447 433.366C427.509 433.349 427.573 433.343 427.637 433.351C427.7 433.358 427.761 433.378 427.817 433.409C427.873 433.44 427.922 433.481 427.962 433.531C428.002 433.581 428.032 433.639 428.049 433.7C428.067 433.762 428.072 433.826 428.065 433.889L420.768 497.86C420.755 497.979 420.698 498.088 420.609 498.168C420.52 498.247 420.405 498.291 420.285 498.291Z" fill="#2A1D19"></path><path d="M330.155 334.539H360.133L361.706 363.221C361.706 393.482 328.946 386.19 328.946 363.221L330.155 334.539Z" fill="#FCCAC3"></path><path d="M330.155 334.539H360.133L361.26 355.077C350.588 358.351 336.716 356.37 329.518 349.659L330.155 334.539Z" fill="#2A1D19"></path><path d="M347.361 383.269C347.361 383.269 337.584 379.517 329.058 360.589L317.597 362.068L322.215 399.194C322.215 399.194 335.944 395.911 347.371 386.069L368.151 397.98C368.151 397.98 375.942 379.666 373.201 361.235L361.427 358.122C361.427 358.122 360.131 377.076 347.361 383.269Z" fill="white"></path><path d="M322.214 399.68C322.096 399.68 321.981 399.637 321.893 399.558C321.804 399.48 321.747 399.372 321.732 399.254L318.708 374.941C318.7 374.877 318.705 374.813 318.722 374.751C318.739 374.689 318.767 374.632 318.807 374.581C318.846 374.531 318.895 374.489 318.95 374.457C319.006 374.426 319.067 374.405 319.131 374.398C319.194 374.39 319.258 374.394 319.32 374.411C319.382 374.428 319.439 374.457 319.49 374.496C319.54 374.535 319.583 374.584 319.614 374.64C319.646 374.696 319.666 374.757 319.673 374.82L322.639 398.665C324.438 398.436 331.724 397.015 343.579 388.453C343.63 388.416 343.689 388.389 343.751 388.374C343.813 388.36 343.878 388.357 343.941 388.367C344.004 388.378 344.065 388.4 344.119 388.434C344.173 388.467 344.22 388.511 344.258 388.563C344.295 388.615 344.322 388.673 344.337 388.736C344.352 388.798 344.354 388.862 344.344 388.925C344.334 388.988 344.311 389.049 344.277 389.103C344.244 389.158 344.2 389.205 344.148 389.242C330.155 399.347 322.545 399.671 322.228 399.68L322.214 399.68ZM368.151 398.467C368.071 398.467 367.992 398.447 367.921 398.409C367.851 398.372 367.79 398.317 367.746 398.25C367.702 398.184 367.674 398.107 367.667 398.027C367.659 397.948 367.671 397.867 367.702 397.793C371.45 388.786 372.857 377.051 372.871 376.933C372.886 376.805 372.951 376.688 373.053 376.608C373.154 376.528 373.283 376.491 373.411 376.506C373.539 376.522 373.656 376.587 373.736 376.688C373.816 376.789 373.852 376.918 373.837 377.046C373.823 377.165 372.4 389.035 368.6 398.167C368.563 398.256 368.501 398.332 368.421 398.385C368.341 398.439 368.247 398.467 368.151 398.467ZM337.675 375.472C337.608 375.472 337.541 375.458 337.479 375.43C337.417 375.403 337.361 375.363 337.316 375.313C333.944 371.611 329.619 362.93 329.437 362.562C329.384 362.447 329.379 362.316 329.421 362.197C329.463 362.078 329.55 361.98 329.663 361.924C329.776 361.868 329.907 361.858 330.027 361.896C330.148 361.934 330.249 362.018 330.308 362.129C330.352 362.218 334.755 371.057 338.035 374.657C338.098 374.727 338.14 374.814 338.155 374.907C338.171 375 338.158 375.095 338.12 375.182C338.082 375.268 338.02 375.341 337.941 375.393C337.862 375.444 337.77 375.472 337.675 375.472Z" fill="#2A1D19"></path><path d="M231.236 521.257L231.224 521.509V521.519C230.75 533.759 234.321 544.336 249.485 544.336C276.465 544.336 294.936 551.411 309.762 545.753C324.59 540.092 341.36 488.915 304.173 493.633L277.559 497.523C277.559 497.523 261.508 499.763 246.44 504.259C232.645 508.375 231.355 519.419 231.236 521.257Z" fill="#7DA3FB"></path><path d="M231.532 528.934C232.766 537.737 237.507 544.336 249.484 544.336C276.465 544.336 294.935 551.411 309.761 545.753C320.852 541.518 333.025 511.826 322.903 499.098C317.87 496.232 310.541 494.123 301.207 496.988C282.314 502.787 293.367 532.264 293.367 532.264C288.829 543.165 263.228 535.18 249.13 536.153C235.2 537.115 231.616 529.123 231.532 528.934Z" fill="#647EDD"></path><path d="M250.275 503.651C250.158 503.651 250.045 503.609 249.957 503.532C249.868 503.455 249.811 503.349 249.794 503.233C249.778 503.117 249.804 502.999 249.867 502.901C249.931 502.802 250.028 502.73 250.14 502.697C250.417 502.617 278.097 494.666 301.052 493.6C310.769 493.148 317.811 494.459 321.978 497.496C325.193 499.84 325.415 502.358 325.423 502.464C325.43 502.591 325.387 502.716 325.303 502.812C325.218 502.908 325.1 502.967 324.973 502.977C324.846 502.986 324.72 502.945 324.622 502.863C324.525 502.78 324.464 502.663 324.452 502.536C324.451 502.516 324.225 500.293 321.309 498.214C318.559 496.252 312.82 494.028 301.097 494.572C278.259 495.632 250.687 503.552 250.411 503.632C250.367 503.645 250.321 503.651 250.275 503.651Z" fill="#2A1D19"></path><path d="M285.192 523.474C285.192 523.474 297.782 501.823 306.388 498.507C314.991 495.192 323.538 514.81 323.538 514.81C323.538 514.81 333.09 504.784 337.433 505.818C341.775 506.849 342.188 510.925 339.948 513.051C337.708 515.174 326.202 535.493 316.738 532.705C316.738 532.705 312.594 541.947 301.681 540.822C290.768 539.698 283.495 525.74 285.192 523.474Z" fill="#FCCAC3"></path><path d="M301.327 501.958C301.327 501.958 310.641 510.276 313.254 512.335C315.87 514.391 321.673 513.924 319.543 508.417C317.415 502.908 309.304 494.879 305.963 494.555C302.622 494.23 298.053 499.051 301.327 501.958ZM283.897 528.442C283.897 528.442 294.385 540.038 298.415 536.685C302.444 533.332 294.443 525.56 290.012 520.704C285.579 515.851 279.697 522.83 283.897 528.442Z" fill="#FCCAC3"></path><path d="M288.295 511.357C288.295 511.357 284.97 515.464 289.83 520.515C294.691 525.565 302.218 530.733 304.971 527.891C307.725 525.049 304.654 519.939 298.06 514.024C291.464 508.111 289.483 509.861 288.295 511.357Z" fill="#FCCAC3"></path><path d="M292.871 502.101C292.871 502.101 295.692 498.125 300.445 501.674C305.2 505.22 315.261 515.849 310.984 519.713C306.705 523.577 295.017 511.122 292.868 508.128C290.717 505.136 292.871 502.101 292.871 502.101Z" fill="#FCCAC3"></path><path d="M316.739 533.189C316.572 533.189 316.41 533.103 316.319 532.949C311.353 524.52 316.772 516.578 316.827 516.499C316.864 516.447 316.91 516.402 316.964 516.367C317.018 516.333 317.078 516.309 317.141 516.298C317.204 516.287 317.268 516.288 317.331 516.302C317.393 516.316 317.452 516.341 317.504 516.378C317.557 516.415 317.602 516.461 317.636 516.515C317.67 516.569 317.694 516.629 317.705 516.692C317.716 516.754 317.715 516.819 317.702 516.881C317.688 516.944 317.662 517.003 317.625 517.055C317.574 517.129 312.515 524.575 317.158 532.455C317.201 532.529 317.225 532.613 317.225 532.699C317.226 532.785 317.204 532.869 317.161 532.944C317.118 533.018 317.057 533.08 316.983 533.123C316.909 533.166 316.825 533.189 316.739 533.189ZM316.68 513.952C315.324 513.952 313.913 513.471 312.954 512.717C310.358 510.673 301.383 502.661 301.003 502.321C300.906 502.235 300.848 502.114 300.841 501.986C300.834 501.857 300.878 501.73 300.964 501.634C301.05 501.538 301.17 501.48 301.299 501.473C301.428 501.465 301.554 501.51 301.651 501.596C301.744 501.678 310.984 509.927 313.555 511.952C315.01 513.095 317.449 513.312 318.672 512.407C319.888 511.508 319.57 509.836 319.089 508.592C316.963 503.087 308.976 495.336 305.916 495.039C305.787 495.026 305.669 494.963 305.587 494.864C305.505 494.764 305.466 494.636 305.479 494.508C305.491 494.38 305.555 494.262 305.654 494.18C305.753 494.098 305.881 494.059 306.01 494.071C309.647 494.424 317.882 502.767 319.997 508.242C321.147 511.215 320.023 512.618 319.25 513.189C318.532 513.721 317.619 513.952 316.68 513.952ZM296.618 537.783C294.782 537.783 292.348 536.586 289.342 534.202C286.221 531.726 283.562 528.797 283.536 528.768C283.493 528.72 283.46 528.665 283.439 528.605C283.417 528.545 283.408 528.481 283.411 528.417C283.417 528.288 283.475 528.167 283.57 528.081C283.666 527.994 283.792 527.949 283.921 527.956C284.05 527.962 284.171 528.02 284.258 528.115C287.088 531.244 295.094 538.815 298.104 536.311C298.676 535.835 298.977 535.252 299.023 534.529C299.227 531.338 294.497 526.25 291.043 522.536C290.556 522.011 290.087 521.508 289.653 521.032C289.61 520.985 289.577 520.93 289.555 520.87C289.533 520.81 289.524 520.746 289.527 520.682C289.53 520.618 289.545 520.556 289.572 520.498C289.599 520.44 289.638 520.388 289.685 520.345C289.732 520.302 289.787 520.269 289.847 520.247C289.907 520.225 289.971 520.216 290.035 520.218C290.099 520.221 290.161 520.237 290.219 520.264C290.277 520.291 290.329 520.329 290.372 520.377C290.831 520.878 291.292 521.377 291.756 521.874C295.529 525.932 300.225 530.982 299.994 534.591C299.931 535.581 299.504 536.412 298.726 537.059C298.146 537.542 297.442 537.783 296.618 537.783Z" fill="#2A1D19"></path><path d="M302.844 529.186H302.836C299.145 529.181 293.468 524.997 289.48 520.853C289.391 520.76 289.344 520.635 289.347 520.507C289.35 520.379 289.403 520.257 289.496 520.168C289.588 520.079 289.712 520.03 289.84 520.032C289.968 520.034 290.091 520.086 290.181 520.178C293.902 524.044 299.451 528.208 302.837 528.213H302.844C303.609 528.213 304.191 527.997 304.622 527.552C305.239 526.915 305.523 526.157 305.491 525.236C305.399 522.607 302.717 518.855 297.735 514.386C297.686 514.344 297.645 514.292 297.616 514.234C297.587 514.176 297.57 514.113 297.566 514.048C297.562 513.983 297.57 513.919 297.591 513.857C297.613 513.796 297.646 513.74 297.689 513.691C297.732 513.643 297.785 513.604 297.844 513.576C297.902 513.549 297.966 513.533 298.031 513.53C298.095 513.527 298.16 513.538 298.221 513.56C298.282 513.583 298.337 513.617 298.385 513.662C303.642 518.378 306.36 522.261 306.463 525.202C306.505 526.385 306.12 527.404 305.32 528.23C304.705 528.865 303.872 529.186 302.844 529.186Z" fill="#2A1D19"></path><path d="M308.939 520.936C308.765 520.936 308.587 520.926 308.404 520.906C302.83 520.308 294.181 510.79 292.473 508.411C292.436 508.359 292.409 508.301 292.395 508.239C292.38 508.176 292.378 508.112 292.389 508.049C292.399 507.986 292.422 507.925 292.455 507.871C292.489 507.817 292.533 507.77 292.585 507.733C292.637 507.695 292.696 507.669 292.758 507.654C292.82 507.64 292.884 507.637 292.948 507.648C293.011 507.658 293.071 507.681 293.125 507.714C293.179 507.748 293.227 507.792 293.264 507.844C295.159 510.483 303.615 519.414 308.508 519.939C309.411 520.036 310.114 519.844 310.659 519.351C311.29 518.781 311.574 518.029 311.528 517.05C311.317 512.563 304.123 505.023 300.154 502.064C300.103 502.025 300.06 501.977 300.027 501.923C299.994 501.868 299.973 501.807 299.964 501.744C299.954 501.68 299.958 501.616 299.974 501.554C299.989 501.492 300.017 501.434 300.055 501.383C300.093 501.332 300.141 501.288 300.196 501.256C300.251 501.223 300.312 501.201 300.375 501.192C300.438 501.183 300.503 501.186 300.565 501.202C300.626 501.218 300.685 501.246 300.736 501.284C304.596 504.162 312.264 511.979 312.5 517.004C312.56 518.274 312.16 519.307 311.311 520.073C310.676 520.647 309.88 520.936 308.939 520.936Z" fill="#2A1D19"></path><path d="M466.844 532.637C463.666 541.832 456.755 547.269 444.663 547.269H404.803C393.986 547.269 386.33 529.162 390.705 509.717C395.08 490.273 419.951 500.46 419.951 500.46C421.274 501.963 429.478 509.173 432.152 524.972C434.826 540.771 459.611 543.928 467.635 529.102C467.469 530.269 467.206 531.447 466.844 532.637Z" fill="#647EDD"></path><path d="M450.674 503.444C450.625 503.444 450.576 503.436 450.527 503.421C450.439 503.393 441.423 500.622 419.958 500.947H419.951C419.822 500.948 419.698 500.897 419.606 500.807C419.514 500.716 419.462 500.593 419.461 500.464C419.46 500.335 419.51 500.21 419.601 500.119C419.691 500.027 419.815 499.975 419.944 499.974C441.596 499.646 450.455 502.377 450.821 502.493C450.932 502.528 451.026 502.602 451.087 502.701C451.148 502.799 451.172 502.917 451.154 503.031C451.136 503.146 451.078 503.25 450.99 503.326C450.902 503.402 450.79 503.443 450.674 503.444Z" fill="#2A1D19"></path><path d="M425.738 527.464C425.738 527.464 419.622 503.176 412.27 497.612C404.915 492.047 391.281 508.539 391.281 508.539C391.281 508.539 384.869 496.265 380.41 496.055C375.952 495.848 374.43 499.651 375.996 502.313C377.561 504.973 383.002 527.681 392.87 527.616C392.87 527.616 394.298 537.642 405.097 539.579C415.896 541.513 426.741 530.11 425.738 527.464Z" fill="#FCCAC3"></path><path d="M416.178 502.327C416.178 502.327 404.927 507.745 401.847 509.001C398.764 510.256 393.316 508.203 396.886 503.499C400.456 498.792 410.468 493.318 413.768 493.929C417.069 494.541 420.126 500.437 416.178 502.327ZM425.609 532.595C425.609 532.595 412.323 540.841 409.379 536.506C406.431 532.17 416.269 526.911 421.871 523.47C427.474 520.03 431.198 528.362 425.609 532.595Z" fill="#FCCAC3"></path><path d="M426.104 514.96C426.104 514.96 428.164 519.827 422.098 523.336C416.031 526.848 407.37 529.734 405.508 526.241C403.648 522.748 408.009 518.686 415.982 514.826C423.957 510.965 425.376 513.196 426.104 514.96Z" fill="#FCCAC3"></path><path d="M424.265 504.8C424.265 504.8 422.653 500.199 417.104 502.297C411.553 504.392 398.946 511.826 401.991 516.722C405.034 521.617 419.708 512.876 422.602 510.594C425.495 508.312 424.265 504.8 424.265 504.8Z" fill="#FCCAC3"></path><path d="M392.87 528.102C392.773 528.102 392.678 528.073 392.597 528.018C392.517 527.964 392.454 527.886 392.418 527.796C392.382 527.706 392.374 527.606 392.395 527.511C392.416 527.416 392.465 527.33 392.535 527.263C399.19 520.957 396.371 512.417 396.342 512.331C396.32 512.271 396.31 512.206 396.313 512.142C396.316 512.077 396.332 512.014 396.36 511.955C396.388 511.897 396.427 511.845 396.476 511.802C396.524 511.759 396.58 511.726 396.642 511.705C396.703 511.684 396.767 511.676 396.832 511.68C396.896 511.684 396.959 511.702 397.017 511.731C397.075 511.76 397.126 511.8 397.168 511.849C397.21 511.898 397.242 511.955 397.262 512.017C397.293 512.108 400.307 521.238 393.205 527.969C393.111 528.058 392.991 528.102 392.87 528.102ZM399.852 509.849C398.322 509.849 396.73 509.317 395.848 508.167C395.263 507.404 394.57 505.745 396.498 503.204C400.045 498.528 410.269 492.786 413.856 493.451C413.982 493.475 414.093 493.549 414.166 493.655C414.238 493.761 414.265 493.891 414.242 494.017C414.218 494.143 414.146 494.255 414.041 494.328C413.935 494.401 413.805 494.43 413.679 494.407C410.66 493.851 400.84 499.09 397.273 503.792C396.467 504.855 395.699 506.374 396.62 507.575C397.546 508.783 399.949 509.247 401.663 508.55C404.694 507.315 415.854 501.943 415.967 501.889C416.082 501.837 416.214 501.832 416.333 501.876C416.452 501.92 416.549 502.008 416.604 502.122C416.659 502.236 416.667 502.367 416.627 502.487C416.587 502.608 416.501 502.707 416.389 502.765C415.929 502.987 405.089 508.204 402.03 509.451C401.387 509.713 400.628 509.849 399.852 509.849ZM412.345 538.253C410.77 538.253 409.644 537.762 408.976 536.779C408.407 535.942 408.226 535.026 408.439 534.057C409.215 530.523 415.127 526.966 419.878 524.108C420.459 523.76 421.038 523.409 421.616 523.055C421.726 522.987 421.858 522.966 421.984 522.996C422.109 523.026 422.218 523.105 422.285 523.215C422.353 523.325 422.374 523.457 422.344 523.582C422.314 523.708 422.235 523.816 422.125 523.884C421.545 524.239 420.963 524.592 420.379 524.941C416.03 527.558 410.075 531.141 409.389 534.265C409.234 534.973 409.362 535.616 409.781 536.232C411.98 539.469 421.767 534.406 425.352 532.182C425.406 532.148 425.467 532.125 425.53 532.114C425.593 532.103 425.658 532.105 425.72 532.12C425.783 532.134 425.842 532.161 425.894 532.198C425.946 532.236 425.99 532.283 426.024 532.337C426.058 532.392 426.081 532.452 426.091 532.516C426.101 532.579 426.099 532.644 426.084 532.706C426.069 532.768 426.043 532.827 426.005 532.879C425.967 532.931 425.92 532.975 425.865 533.008C425.832 533.029 422.467 535.109 418.783 536.626C416.151 537.71 414 538.253 412.345 538.253Z" fill="#2A1D19"></path><path d="M409.084 528.311C408.394 528.311 407.761 528.237 407.204 528.078C406.211 527.794 405.496 527.253 405.079 526.47C404.538 525.455 404.45 524.369 404.817 523.243C405.73 520.444 409.415 517.465 415.77 514.389C415.886 514.337 416.017 514.333 416.136 514.376C416.255 514.419 416.352 514.507 416.407 514.621C416.462 514.735 416.471 514.866 416.431 514.986C416.391 515.107 416.306 515.206 416.194 515.265C410.173 518.179 406.559 521.043 405.742 523.545C405.456 524.422 405.52 525.229 405.937 526.013C406.23 526.561 406.731 526.931 407.471 527.142C410.729 528.072 417.21 525.603 421.854 522.915C421.965 522.856 422.095 522.842 422.216 522.877C422.338 522.912 422.441 522.992 422.504 523.101C422.567 523.21 422.586 523.34 422.555 523.462C422.525 523.585 422.448 523.691 422.341 523.758C418.146 526.186 412.79 528.311 409.084 528.311Z" fill="#2A1D19"></path><path d="M405.3 518.675C404.892 518.675 404.504 518.645 404.139 518.581C402.974 518.377 402.112 517.838 401.578 516.978C400.974 516.007 400.874 514.904 401.282 513.7C402.896 508.937 412.427 503.542 416.932 501.842C417.053 501.798 417.186 501.803 417.302 501.856C417.419 501.909 417.51 502.007 417.555 502.127C417.601 502.247 417.597 502.38 417.544 502.497C417.492 502.614 417.396 502.706 417.276 502.752C412.643 504.501 403.645 509.759 402.204 514.013C401.889 514.941 401.955 515.742 402.404 516.465C402.791 517.088 403.413 517.467 404.306 517.623C404.611 517.676 404.939 517.702 405.286 517.702C410.451 517.702 419.909 512.099 422.3 510.213C422.402 510.135 422.53 510.1 422.657 510.116C422.784 510.132 422.899 510.197 422.978 510.297C423.058 510.398 423.094 510.525 423.08 510.652C423.066 510.779 423.002 510.896 422.903 510.976C420.755 512.67 411.065 518.675 405.3 518.675ZM312.961 328.057C312.961 328.057 300.373 314.2 298.844 287.049C297.313 259.896 327.906 257.257 343.159 255.703C358.412 254.147 368.811 267.309 370.144 275.322C371.476 283.332 380.065 316.607 365.087 323.694C350.11 330.783 312.961 328.057 312.961 328.057Z" fill="#2A1D19"></path><path d="M361.732 311.99C361.732 311.99 367.761 291.104 376.075 295.96C384.391 300.816 386.008 332.034 365.097 326.513L361.732 311.99Z" fill="#FCCAC3"></path><path d="M373.536 316.35C373.41 316.35 373.29 316.301 373.199 316.214C373.109 316.127 373.055 316.009 373.05 315.883C373.017 315.085 373.006 314.285 373.018 313.486C373.135 306.196 375.29 303.895 375.391 303.792C375.481 303.701 375.603 303.649 375.731 303.648C375.859 303.647 375.982 303.696 376.074 303.785C376.166 303.874 376.219 303.995 376.222 304.123C376.225 304.251 376.178 304.375 376.09 304.468C376.056 304.506 374.362 306.402 374.039 312.169C375.3 311.15 376.699 311.302 376.773 311.311C376.901 311.326 377.018 311.392 377.097 311.493C377.177 311.594 377.214 311.723 377.198 311.851C377.183 311.98 377.118 312.096 377.016 312.176C376.915 312.256 376.786 312.292 376.658 312.277C376.585 312.269 375.025 312.123 373.989 313.657C373.981 314.339 373.99 315.068 374.022 315.843C374.025 315.907 374.015 315.971 373.993 316.031C373.971 316.091 373.938 316.146 373.894 316.193C373.851 316.24 373.799 316.278 373.741 316.305C373.683 316.332 373.62 316.347 373.556 316.349C373.55 316.35 373.543 316.35 373.536 316.35Z" fill="#2A1D19"></path><path d="M323.185 348.549C312.389 338.487 308.495 319.825 305.088 283.547C301.037 261.23 359.172 254.807 362.497 273.126C372.054 308.289 373.905 328.062 367.602 340.734C360.764 354.487 333.982 358.61 323.185 348.549Z" fill="#FCCAC3"></path><path d="M317.011 320.108C317.011 320.108 302.414 302.965 295.118 310.655C287.819 318.344 297.939 348.017 318.843 334.908L317.011 320.108Z" fill="#FCCAC3"></path><path d="M311.209 328.399C311.041 328.399 310.879 328.313 310.788 328.158C310.403 327.497 309.979 326.86 309.518 326.25C305.434 325.412 300.867 326.782 300.82 326.796C300.698 326.829 300.568 326.814 300.457 326.752C300.346 326.691 300.264 326.59 300.227 326.468C300.19 326.347 300.201 326.217 300.259 326.104C300.317 325.991 300.416 325.906 300.536 325.865C300.717 325.81 304.613 324.639 308.585 325.115C304.011 319.981 298.275 319.424 298.207 319.419C298.144 319.413 298.082 319.395 298.025 319.366C297.968 319.336 297.918 319.296 297.877 319.247C297.836 319.198 297.805 319.142 297.785 319.081C297.766 319.02 297.759 318.956 297.764 318.892C297.776 318.764 297.838 318.646 297.936 318.563C298.035 318.48 298.162 318.439 298.291 318.449C298.632 318.479 306.718 319.265 311.628 327.667C311.672 327.741 311.695 327.825 311.695 327.911C311.695 327.996 311.673 328.08 311.631 328.155C311.588 328.229 311.527 328.291 311.453 328.334C311.378 328.377 311.294 328.399 311.209 328.399ZM307.407 286.099C307.407 286.099 313.994 321.814 310.277 322.352C306.558 322.892 283.862 284.289 296.149 273.077C296.149 273.077 284.877 257.994 313.794 252.14C342.708 246.286 346.32 238.444 350.954 239.909C355.591 241.374 354.214 250.241 354.214 250.241C354.214 250.241 362.507 246.372 367.836 246.939C373.163 247.504 376.25 274.767 357.742 278.542C357.742 278.542 339.26 285.052 307.407 286.099Z" fill="#2A1D19"></path><path d="M362.32 272.356C362.32 272.356 367.708 305.683 369.138 306.395C370.571 307.106 371.294 301.485 369.22 284.776C367.145 268.067 360.638 265.58 362.32 272.356ZM345.216 322.826C343.472 322.826 341.549 322.13 341.254 322.019C341.133 321.974 341.035 321.882 340.982 321.765C340.929 321.647 340.924 321.513 340.97 321.393C341.015 321.272 341.107 321.174 341.224 321.121C341.342 321.067 341.475 321.063 341.596 321.108C342.612 321.489 345.505 322.308 346.679 321.531C347 321.319 347.158 321.002 347.179 320.535C347.29 317.954 342.077 309.171 340.059 306.005C339.989 305.896 339.966 305.765 339.994 305.639C340.022 305.513 340.099 305.403 340.207 305.333C340.316 305.264 340.448 305.241 340.574 305.269C340.7 305.297 340.81 305.374 340.879 305.482C341.182 305.958 348.298 317.163 348.151 320.577C348.118 321.35 347.794 321.96 347.216 322.343C346.676 322.699 345.963 322.826 345.216 322.826Z" fill="#2A1D19"></path><path d="M334.518 325.281C334.518 325.281 342.949 327.78 349.983 325.395C357.018 323.013 357.604 335.615 347.118 337.876C336.632 340.139 326.965 323.489 334.518 325.281Z" fill="white"></path><path d="M327.449 302.209L327.451 302.209C328.699 301.983 329.894 302.81 330.12 304.058L330.589 306.643C330.816 307.891 329.988 309.086 328.74 309.312L328.738 309.313C327.49 309.539 326.295 308.711 326.069 307.464L325.6 304.878C325.373 303.631 326.201 302.436 327.449 302.209ZM351.302 297.881L351.305 297.881C352.552 297.654 353.748 298.482 353.974 299.73L354.443 302.315C354.669 303.562 353.842 304.758 352.594 304.984L352.592 304.984C352.295 305.038 351.991 305.033 351.696 304.969C351.401 304.905 351.122 304.784 350.874 304.613C350.626 304.441 350.415 304.222 350.251 303.968C350.088 303.715 349.976 303.432 349.923 303.135L349.453 300.55C349.227 299.303 350.055 298.108 351.302 297.881ZM319.328 299.311C319.328 299.311 329.948 298.114 332.458 296.928C334.967 295.743 333.588 292.946 329.941 293.68C326.296 294.415 314.678 298.599 319.328 299.311ZM358.998 292.112C358.998 292.112 348.635 294.723 345.868 294.495C343.102 294.266 343.411 291.163 347.083 290.57C350.754 289.977 363.1 289.812 358.998 292.112Z" fill="#2A1D19"></path><path d="M472.334 394.882H478.07L456.967 505.423H451.231L472.334 394.882ZM591.745 394.882H478.073L456.97 505.423H570.642L591.745 394.882Z" fill="#353640"></path><path d="M456.967 505.91C456.896 505.91 456.825 505.894 456.76 505.864C456.695 505.834 456.638 505.789 456.592 505.734C456.547 505.679 456.514 505.614 456.496 505.545C456.478 505.475 456.476 505.403 456.489 505.333L475.413 406.21C475.437 406.083 475.51 405.971 475.617 405.899C475.724 405.826 475.855 405.799 475.982 405.823C476.108 405.848 476.22 405.921 476.293 406.028C476.365 406.134 476.392 406.266 476.368 406.392L457.445 505.515C457.423 505.626 457.364 505.726 457.277 505.798C457.19 505.87 457.081 505.91 456.967 505.91Z" fill="white"></path><path d="M566.013 540.283H483.086C480.846 540.283 479.012 542.117 479.012 544.357V548.431H570.087V544.357C570.087 542.117 568.253 540.283 566.013 540.283Z" fill="#353640"></path><path d="M514.633 461.382H534.466V540.283H514.633V461.382Z" fill="#949899"></path><path d="M519.045 534.785C518.916 534.785 518.793 534.734 518.701 534.642C518.61 534.551 518.559 534.428 518.559 534.299V461.382C518.563 461.255 518.616 461.135 518.707 461.047C518.797 460.959 518.919 460.91 519.045 460.91C519.172 460.91 519.293 460.959 519.384 461.047C519.475 461.135 519.528 461.255 519.532 461.382V534.299C519.532 534.428 519.481 534.551 519.389 534.643C519.298 534.734 519.174 534.785 519.045 534.785Z" fill="#353640"></path><path d="M575.454 518.048H575.448C575.348 518.047 575.251 518.015 575.17 517.956C575.089 517.898 575.028 517.816 574.995 517.722C574.964 517.636 571.938 508.948 569.852 498.99C567.035 485.531 567.19 476.271 570.313 471.467C571.779 469.212 573.905 467.957 576.63 467.736C579.35 467.516 581.433 468.425 582.817 470.427C589.832 480.578 576.481 516.221 575.909 517.733C575.874 517.826 575.812 517.905 575.73 517.962C575.649 518.018 575.552 518.048 575.454 518.048ZM577.41 468.676C577.184 468.676 576.948 468.686 576.708 468.706C574.265 468.904 572.44 469.98 571.129 471.997C564.789 481.748 573.379 509.692 575.473 516.088C577.842 509.48 588.015 479.661 582.016 470.98C580.945 469.43 579.438 468.676 577.41 468.676Z" fill="#276169"></path><path d="M575.911 523.362C575.911 523.362 573.995 492.77 585.053 479.645C596.113 466.52 609.117 469.802 613.004 475.027C616.894 480.253 608.386 484.262 594.897 486.329C581.408 488.395 575.911 523.362 575.911 523.362ZM572.236 515.016C572.236 515.016 548.849 485.231 553.775 466.692C558.698 448.152 577.484 458.684 572.236 515.016Z" fill="#59BD9F"></path><path d="M573.311 515.137C573.311 515.137 573.311 515.137 573.311 515.137C569.641 515.137 566.85 511.841 563.618 508.025C560.098 503.868 556.108 499.156 549.752 496.626C541.783 493.452 536.331 488.156 537.069 484.305C537.449 482.325 539.539 479.965 547.339 479.965C548.524 479.965 549.818 480.021 551.187 480.133C559.925 480.844 566.999 486.976 571.646 497.867C575.127 506.027 576.047 514.088 576.056 514.169C576.068 514.277 576.043 514.386 575.986 514.478C575.929 514.57 575.842 514.641 575.74 514.679C574.914 514.983 574.097 515.137 573.311 515.137ZM547.339 480.938C541.772 480.938 538.464 482.199 538.025 484.488C537.384 487.833 542.693 492.768 550.112 495.722C556.693 498.342 560.944 503.362 564.36 507.396C567.562 511.177 570.092 514.164 573.311 514.164H573.311C573.877 514.164 574.445 514.074 575.04 513.889C574.812 512.201 573.741 505.25 570.742 498.229C566.182 487.554 559.576 481.792 551.108 481.103C549.766 480.993 548.498 480.938 547.339 480.938Z" fill="white"></path><path d="M577.397 514.525C577.327 514.525 577.257 514.509 577.194 514.48C577.13 514.45 577.073 514.407 577.027 514.354C576.982 514.3 576.948 514.237 576.929 514.17C576.91 514.102 576.906 514.031 576.917 513.961C578.063 506.768 581.007 500.649 585.432 496.265C589.349 492.385 594.255 490.16 598.892 490.16C601.197 490.16 603.326 490.691 605.22 491.737C609.075 493.867 610.892 497.43 609.962 501.036C609.104 504.361 605.684 507.716 599.976 507.716H599.975C599.09 507.716 598.17 507.633 597.241 507.468C596.13 507.271 595.004 507.172 593.876 507.171C584.39 507.171 577.823 514.293 577.758 514.365C577.712 514.415 577.657 514.455 577.594 514.483C577.532 514.51 577.465 514.525 577.397 514.525ZM598.892 491.133C594.51 491.133 589.853 493.256 586.117 496.957C582.146 500.89 579.406 506.285 578.144 512.629C580.45 510.543 586.179 506.198 593.876 506.198C595.052 506.198 596.242 506.303 597.411 506.51C598.284 506.664 599.147 506.743 599.975 506.743C605.163 506.743 608.256 503.755 609.02 500.793C609.833 497.638 608.197 494.494 604.749 492.589C603.001 491.623 601.03 491.133 598.892 491.133Z" fill="#276169"></path><path d="M578.438 513.028C578.438 513.028 579.766 500.974 588.821 498.542C597.875 496.113 597.326 502.369 589.974 504.924C582.622 507.476 580.193 515.254 580.193 515.254L578.438 513.028Z" fill="#67CFB0"></path><path d="M555.942 507.476H595.203C596.51 507.476 597.569 508.776 597.569 510.379V518.063C597.569 519.666 596.51 520.965 595.203 520.965H555.942C554.635 520.965 553.576 519.666 553.576 518.063V510.379C553.576 508.776 554.636 507.476 555.942 507.476ZM558.315 520.968L562.205 548.434H588.94L592.83 520.968H558.315Z" fill="#F2889E"></path><path d="M592.83 520.968L558.994 525.758L558.315 520.968H592.83ZM593.558 519.387H561.717C561.591 519.383 561.471 519.33 561.383 519.239C561.295 519.149 561.246 519.027 561.246 518.901C561.246 518.774 561.295 518.653 561.383 518.562C561.471 518.471 561.591 518.418 561.717 518.414H593.558C593.684 518.418 593.804 518.471 593.892 518.562C593.98 518.653 594.03 518.774 594.03 518.901C594.03 519.027 593.98 519.149 593.892 519.239C593.804 519.33 593.684 519.383 593.558 519.387ZM561.157 541.533C561.04 541.533 560.926 541.49 560.838 541.413C560.75 541.336 560.692 541.23 560.675 541.114L558.748 527.492C558.739 527.429 558.743 527.365 558.759 527.303C558.775 527.241 558.803 527.183 558.841 527.132C558.879 527.081 558.927 527.038 558.982 527.005C559.037 526.973 559.098 526.951 559.162 526.942C559.289 526.925 559.419 526.959 559.522 527.036C559.624 527.114 559.693 527.228 559.711 527.356L561.639 540.978C561.648 541.047 561.643 541.117 561.624 541.184C561.604 541.251 561.57 541.313 561.524 541.366C561.479 541.418 561.422 541.46 561.359 541.489C561.295 541.518 561.226 541.533 561.157 541.533Z" fill="#2A1D19"></path><path d="M263.349 540.437H382.055C387.583 540.437 391.564 535.885 392.107 530.383L399.025 460.341C399.567 454.839 394.501 450.289 388.971 450.289H256.433C250.903 450.289 245.838 454.839 246.379 460.341L253.297 530.383C253.839 535.885 257.822 540.437 263.349 540.437Z" fill="white"></path><path d="M388.11 548.434H257.294C255.094 548.434 253.297 546.635 253.297 544.434V540.437H392.107V544.434C392.107 546.635 390.311 548.434 388.11 548.434Z" fill="#353640"></path><path d="M322.702 504.665C328.503 504.665 333.205 500.5 333.205 495.362C333.205 490.224 328.503 486.059 322.702 486.059C316.902 486.059 312.2 490.224 312.2 495.362C312.2 500.5 316.902 504.665 322.702 504.665Z" fill="#EFF3F7"></path><path d="M617.167 548.918H82.8333C82.7069 548.914 82.587 548.861 82.4989 548.77C82.4109 548.679 82.3617 548.558 82.3617 548.431C82.3617 548.305 82.4109 548.183 82.4989 548.093C82.587 548.002 82.7069 547.949 82.8333 547.945H617.167C617.293 547.949 617.413 548.002 617.501 548.093C617.589 548.183 617.638 548.305 617.638 548.431C617.638 548.558 617.589 548.679 617.501 548.77C617.413 548.861 617.293 548.914 617.167 548.918Z" fill="#353640"></path></g><defs><clipPath id="clip0_1_2"><rect width="700" height="700" fill="white"></rect></clipPath></defs></svg>